solid Exported from Blender-2.82 (sub 7)
facet normal -0.996585 0.082577 0.000000
outer loop
vertex -0.897589 0.149781 0.230000
vertex -0.910000 0.000000 0.230000
vertex -0.897589 0.149781 2.480000
endloop
endfacet
facet normal -0.996585 -0.082577 0.000000
outer loop
vertex -0.910000 0.000000 2.480000
vertex -0.897589 -0.149781 0.230000
vertex -0.897589 -0.149781 2.480000
endloop
endfacet
facet normal -0.996585 -0.082579 0.000000
outer loop
vertex -0.910000 0.000000 0.230000
vertex -0.897589 -0.149781 0.230000
vertex -0.910000 0.000000 2.480000
endloop
endfacet
facet normal -0.969400 -0.245486 0.000000
outer loop
vertex -0.897589 -0.149781 2.480000
vertex -0.860694 -0.295476 0.230000
vertex -0.860694 -0.295476 2.480000
endloop
endfacet
facet normal 0.996585 0.082579 0.000000
outer loop
vertex 0.910000 0.000000 0.230000
vertex 0.897589 0.149781 0.230000
vertex 0.910000 0.000000 2.480000
endloop
endfacet
facet normal -0.969400 -0.245486 0.000000
outer loop
vertex -0.897589 -0.149781 0.230000
vertex -0.860694 -0.295476 0.230000
vertex -0.897589 -0.149781 2.480000
endloop
endfacet
facet normal 0.996585 0.082577 0.000000
outer loop
vertex 0.910000 0.000000 2.480000
vertex 0.897589 0.149781 0.230000
vertex 0.897589 0.149781 2.480000
endloop
endfacet
facet normal -0.915773 -0.401697 0.000000
outer loop
vertex -0.860694 -0.295476 2.480000
vertex -0.800321 -0.433112 0.230000
vertex -0.800321 -0.433112 2.480000
endloop
endfacet
facet normal -0.915773 -0.401697 0.000000
outer loop
vertex -0.860694 -0.295476 0.230000
vertex -0.800321 -0.433112 0.230000
vertex -0.860694 -0.295476 2.480000
endloop
endfacet
facet normal 0.969400 0.245486 0.000000
outer loop
vertex 0.897589 0.149781 2.480000
vertex 0.860694 0.295476 0.230000
vertex 0.860694 0.295476 2.480000
endloop
endfacet
facet normal 0.969400 0.245486 0.000000
outer loop
vertex 0.897589 0.149781 0.230000
vertex 0.860694 0.295476 0.230000
vertex 0.897589 0.149781 2.480000
endloop
endfacet
facet normal -0.837168 -0.546945 0.000000
outer loop
vertex -0.800321 -0.433112 2.480000
vertex -0.718118 -0.558934 0.230000
vertex -0.718118 -0.558934 2.480000
endloop
endfacet
facet normal -0.837169 -0.546945 0.000000
outer loop
vertex -0.800321 -0.433112 0.230000
vertex -0.718118 -0.558934 0.230000
vertex -0.800321 -0.433112 2.480000
endloop
endfacet
facet normal 0.915773 0.401697 0.000000
outer loop
vertex 0.860694 0.295476 2.480000
vertex 0.800321 0.433112 0.230000
vertex 0.800321 0.433112 2.480000
endloop
endfacet
facet normal 0.915773 0.401697 0.000000
outer loop
vertex 0.860694 0.295476 0.230000
vertex 0.800321 0.433112 0.230000
vertex 0.860694 0.295476 2.480000
endloop
endfacet
facet normal -0.735722 -0.677284 0.000000
outer loop
vertex -0.718118 -0.558934 2.480000
vertex -0.616326 -0.669509 0.230000
vertex -0.616326 -0.669509 2.480000
endloop
endfacet
facet normal -0.735722 -0.677284 0.000000
outer loop
vertex -0.718118 -0.558934 0.230000
vertex -0.616326 -0.669509 0.230000
vertex -0.718118 -0.558934 2.480000
endloop
endfacet
facet normal 0.837168 0.546945 0.000000
outer loop
vertex 0.800321 0.433112 2.480000
vertex 0.718118 0.558934 0.230000
vertex 0.718118 0.558934 2.480000
endloop
endfacet
facet normal 0.837169 0.546945 0.000000
outer loop
vertex 0.800321 0.433112 0.230000
vertex 0.718118 0.558934 0.230000
vertex 0.800321 0.433112 2.480000
endloop
endfacet
facet normal -0.614211 -0.789142 0.000000
outer loop
vertex -0.616326 -0.669509 2.480000
vertex -0.497723 -0.761821 0.230000
vertex -0.497723 -0.761821 2.480000
endloop
endfacet
facet normal -0.614211 -0.789142 0.000000
outer loop
vertex -0.616326 -0.669509 0.230000
vertex -0.497723 -0.761821 0.230000
vertex -0.616326 -0.669509 2.480000
endloop
endfacet
facet normal 0.735722 0.677284 0.000000
outer loop
vertex 0.718118 0.558934 0.230000
vertex 0.616326 0.669509 0.230000
vertex 0.718118 0.558934 2.480000
endloop
endfacet
facet normal 0.735722 0.677284 0.000000
outer loop
vertex 0.718118 0.558934 2.480000
vertex 0.616326 0.669509 0.230000
vertex 0.616326 0.669509 2.480000
endloop
endfacet
facet normal -0.475951 -0.879472 0.000000
outer loop
vertex -0.497723 -0.761821 2.480000
vertex -0.365543 -0.833354 0.230000
vertex -0.365543 -0.833354 2.480000
endloop
endfacet
facet normal -0.475951 -0.879472 0.000000
outer loop
vertex -0.497723 -0.761821 0.230000
vertex -0.365543 -0.833354 0.230000
vertex -0.497723 -0.761821 2.480000
endloop
endfacet
facet normal 0.614211 0.789142 0.000000
outer loop
vertex 0.616326 0.669509 0.230000
vertex 0.497723 0.761821 0.230000
vertex 0.616326 0.669509 2.480000
endloop
endfacet
facet normal 0.614211 0.789142 0.000000
outer loop
vertex 0.616326 0.669509 2.480000
vertex 0.497723 0.761821 0.230000
vertex 0.497723 0.761821 2.480000
endloop
endfacet
facet normal -0.324696 -0.945818 0.000000
outer loop
vertex -0.365543 -0.833354 2.480000
vertex -0.223392 -0.882154 0.230000
vertex -0.223392 -0.882154 2.480000
endloop
endfacet
facet normal -0.324697 -0.945818 0.000000
outer loop
vertex -0.365543 -0.833354 0.230000
vertex -0.223392 -0.882154 0.230000
vertex -0.365543 -0.833354 2.480000
endloop
endfacet
facet normal 0.475951 0.879472 0.000000
outer loop
vertex 0.497723 0.761821 0.230000
vertex 0.365543 0.833354 0.230000
vertex 0.497723 0.761821 2.480000
endloop
endfacet
facet normal 0.475951 0.879472 0.000000
outer loop
vertex 0.497723 0.761821 2.480000
vertex 0.365543 0.833354 0.230000
vertex 0.365543 0.833354 2.480000
endloop
endfacet
facet normal -0.164597 -0.986361 0.000000
outer loop
vertex -0.223392 -0.882154 2.480000
vertex -0.075147 -0.906892 0.230000
vertex -0.075147 -0.906892 2.480000
endloop
endfacet
facet normal -0.164597 -0.986361 0.000000
outer loop
vertex -0.223392 -0.882154 0.230000
vertex -0.075147 -0.906892 0.230000
vertex -0.223392 -0.882154 2.480000
endloop
endfacet
facet normal 0.324697 0.945818 0.000000
outer loop
vertex 0.365543 0.833354 0.230000
vertex 0.223392 0.882154 0.230000
vertex 0.365543 0.833354 2.480000
endloop
endfacet
facet normal 0.324696 0.945818 0.000000
outer loop
vertex 0.365543 0.833354 2.480000
vertex 0.223392 0.882154 0.230000
vertex 0.223392 0.882154 2.480000
endloop
endfacet
facet normal 0.000000 -1.000000 0.000000
outer loop
vertex -0.075147 -0.906892 2.480000
vertex 0.075147 -0.906892 0.230000
vertex 0.075147 -0.906892 2.480000
endloop
endfacet
facet normal 0.000000 -1.000000 0.000000
outer loop
vertex -0.075147 -0.906892 0.230000
vertex 0.075147 -0.906892 0.230000
vertex -0.075147 -0.906892 2.480000
endloop
endfacet
facet normal 0.164597 0.986361 0.000000
outer loop
vertex 0.223392 0.882154 0.230000
vertex 0.075147 0.906892 0.230000
vertex 0.223392 0.882154 2.480000
endloop
endfacet
facet normal 0.164597 0.986361 0.000000
outer loop
vertex 0.223392 0.882154 2.480000
vertex 0.075147 0.906892 0.230000
vertex 0.075147 0.906892 2.480000
endloop
endfacet
facet normal 0.164597 -0.986361 0.000000
outer loop
vertex 0.075147 -0.906892 2.480000
vertex 0.223392 -0.882154 0.230000
vertex 0.223392 -0.882154 2.480000
endloop
endfacet
facet normal 0.000000 1.000000 0.000000
outer loop
vertex 0.075147 0.906892 0.230000
vertex -0.075147 0.906892 0.230000
vertex 0.075147 0.906892 2.480000
endloop
endfacet
facet normal 0.164597 -0.986361 0.000000
outer loop
vertex 0.075147 -0.906892 0.230000
vertex 0.223392 -0.882154 0.230000
vertex 0.075147 -0.906892 2.480000
endloop
endfacet
facet normal 0.000000 1.000000 0.000000
outer loop
vertex 0.075147 0.906892 2.480000
vertex -0.075147 0.906892 0.230000
vertex -0.075147 0.906892 2.480000
endloop
endfacet
facet normal 0.324696 -0.945818 0.000000
outer loop
vertex 0.223392 -0.882154 0.230000
vertex 0.365543 -0.833354 0.230000
vertex 0.223392 -0.882154 2.480000
endloop
endfacet
facet normal 0.324696 -0.945818 0.000000
outer loop
vertex 0.223392 -0.882154 2.480000
vertex 0.365543 -0.833354 0.230000
vertex 0.365543 -0.833354 2.480000
endloop
endfacet
facet normal -0.164597 0.986361 0.000000
outer loop
vertex -0.075147 0.906892 0.230000
vertex -0.223392 0.882154 0.230000
vertex -0.075147 0.906892 2.480000
endloop
endfacet
facet normal -0.164597 0.986361 0.000000
outer loop
vertex -0.075147 0.906892 2.480000
vertex -0.223392 0.882154 0.230000
vertex -0.223392 0.882154 2.480000
endloop
endfacet
facet normal 0.475951 -0.879472 0.000000
outer loop
vertex 0.365543 -0.833354 0.230000
vertex 0.497723 -0.761821 0.230000
vertex 0.365543 -0.833354 2.480000
endloop
endfacet
facet normal 0.475951 -0.879472 0.000000
outer loop
vertex 0.365543 -0.833354 2.480000
vertex 0.497723 -0.761821 0.230000
vertex 0.497723 -0.761821 2.480000
endloop
endfacet
facet normal -0.324696 0.945818 0.000000
outer loop
vertex -0.223392 0.882154 0.230000
vertex -0.365543 0.833354 0.230000
vertex -0.223392 0.882154 2.480000
endloop
endfacet
facet normal -0.324696 0.945818 0.000000
outer loop
vertex -0.223392 0.882154 2.480000
vertex -0.365543 0.833354 0.230000
vertex -0.365543 0.833354 2.480000
endloop
endfacet
facet normal 0.614211 -0.789142 0.000000
outer loop
vertex 0.497723 -0.761821 0.230000
vertex 0.616326 -0.669509 0.230000
vertex 0.497723 -0.761821 2.480000
endloop
endfacet
facet normal 0.614211 -0.789142 0.000000
outer loop
vertex 0.497723 -0.761821 2.480000
vertex 0.616326 -0.669509 0.230000
vertex 0.616326 -0.669509 2.480000
endloop
endfacet
facet normal -0.475951 0.879472 0.000000
outer loop
vertex -0.365543 0.833354 0.230000
vertex -0.497723 0.761821 0.230000
vertex -0.365543 0.833354 2.480000
endloop
endfacet
facet normal -0.475951 0.879472 0.000000
outer loop
vertex -0.365543 0.833354 2.480000
vertex -0.497723 0.761821 0.230000
vertex -0.497723 0.761821 2.480000
endloop
endfacet
facet normal 0.735722 -0.677284 0.000000
outer loop
vertex 0.616326 -0.669509 0.230000
vertex 0.718118 -0.558934 0.230000
vertex 0.616326 -0.669509 2.480000
endloop
endfacet
facet normal 0.735722 -0.677284 0.000000
outer loop
vertex 0.616326 -0.669509 2.480000
vertex 0.718118 -0.558934 0.230000
vertex 0.718118 -0.558934 2.480000
endloop
endfacet
facet normal -0.614211 0.789142 0.000000
outer loop
vertex -0.497723 0.761821 0.230000
vertex -0.616326 0.669509 0.230000
vertex -0.497723 0.761821 2.480000
endloop
endfacet
facet normal -0.614211 0.789142 0.000000
outer loop
vertex -0.497723 0.761821 2.480000
vertex -0.616326 0.669509 0.230000
vertex -0.616326 0.669509 2.480000
endloop
endfacet
facet normal 0.837168 -0.546945 0.000000
outer loop
vertex 0.718118 -0.558934 0.230000
vertex 0.800321 -0.433112 0.230000
vertex 0.718118 -0.558934 2.480000
endloop
endfacet
facet normal 0.837169 -0.546945 0.000000
outer loop
vertex 0.718118 -0.558934 2.480000
vertex 0.800321 -0.433112 0.230000
vertex 0.800321 -0.433112 2.480000
endloop
endfacet
facet normal 0.915773 -0.401697 0.000000
outer loop
vertex 0.800321 -0.433112 2.480000
vertex 0.800321 -0.433112 0.230000
vertex 0.860694 -0.295476 2.480000
endloop
endfacet
facet normal -0.735722 0.677284 0.000000
outer loop
vertex -0.616326 0.669509 0.230000
vertex -0.718118 0.558934 0.230000
vertex -0.616326 0.669509 2.480000
endloop
endfacet
facet normal -0.735722 0.677284 0.000000
outer loop
vertex -0.616326 0.669509 2.480000
vertex -0.718118 0.558934 0.230000
vertex -0.718118 0.558934 2.480000
endloop
endfacet
facet normal 0.915773 -0.401697 0.000000
outer loop
vertex 0.800321 -0.433112 0.230000
vertex 0.860694 -0.295476 0.230000
vertex 0.860694 -0.295476 2.480000
endloop
endfacet
facet normal -0.837168 0.546945 0.000000
outer loop
vertex -0.718118 0.558934 0.230000
vertex -0.800321 0.433112 0.230000
vertex -0.718118 0.558934 2.480000
endloop
endfacet
facet normal -0.837169 0.546945 0.000000
outer loop
vertex -0.718118 0.558934 2.480000
vertex -0.800321 0.433112 0.230000
vertex -0.800321 0.433112 2.480000
endloop
endfacet
facet normal 0.969400 -0.245486 0.000000
outer loop
vertex 0.860694 -0.295476 0.230000
vertex 0.897589 -0.149781 0.230000
vertex 0.860694 -0.295476 2.480000
endloop
endfacet
facet normal 0.969400 -0.245486 0.000000
outer loop
vertex 0.860694 -0.295476 2.480000
vertex 0.897589 -0.149781 0.230000
vertex 0.897589 -0.149781 2.480000
endloop
endfacet
facet normal 0.996585 -0.082577 0.000000
outer loop
vertex 0.897589 -0.149781 0.230000
vertex 0.910000 0.000000 0.230000
vertex 0.897589 -0.149781 2.480000
endloop
endfacet
facet normal -0.915773 0.401697 0.000000
outer loop
vertex -0.800321 0.433112 0.230000
vertex -0.860694 0.295476 0.230000
vertex -0.800321 0.433112 2.480000
endloop
endfacet
facet normal 0.996585 -0.082579 0.000000
outer loop
vertex 0.897589 -0.149781 2.480000
vertex 0.910000 0.000000 0.230000
vertex 0.910000 0.000000 2.480000
endloop
endfacet
facet normal -0.915773 0.401697 0.000000
outer loop
vertex -0.800321 0.433112 2.480000
vertex -0.860694 0.295476 0.230000
vertex -0.860694 0.295476 2.480000
endloop
endfacet
facet normal -0.969400 0.245486 0.000000
outer loop
vertex -0.860694 0.295476 0.230000
vertex -0.897589 0.149781 0.230000
vertex -0.860694 0.295476 2.480000
endloop
endfacet
facet normal -0.969400 0.245486 0.000000
outer loop
vertex -0.860694 0.295476 2.480000
vertex -0.897589 0.149781 0.230000
vertex -0.897589 0.149781 2.480000
endloop
endfacet
facet normal -0.996585 0.082579 0.000000
outer loop
vertex -0.897589 0.149781 2.480000
vertex -0.910000 0.000000 0.230000
vertex -0.910000 0.000000 2.480000
endloop
endfacet
facet normal 0.000000 0.000000 -1.000000
outer loop
vertex 0.718118 -0.558934 0.230000
vertex 0.860694 0.295476 0.230000
vertex 0.910000 0.000000 0.230000
endloop
endfacet
facet normal 0.000001 0.000000 -1.000000
outer loop
vertex 0.223392 0.882154 0.230000
vertex 0.365543 0.833354 0.230000
vertex 0.075147 0.906892 0.230000
endloop
endfacet
facet normal 0.000000 0.000000 -1.000000
outer loop
vertex 0.075147 0.906892 0.230000
vertex 0.365543 0.833354 0.230000
vertex -0.075147 0.906892 0.230000
endloop
endfacet
facet normal -0.000000 0.000000 -1.000000
outer loop
vertex -0.075147 0.906892 0.230000
vertex 0.365543 0.833354 0.230000
vertex -0.223392 0.882154 0.230000
endloop
endfacet
facet normal 0.000000 0.000000 -1.000000
outer loop
vertex -0.223392 0.882154 0.230000
vertex 0.365543 0.833354 0.230000
vertex -0.365543 0.833354 0.230000
endloop
endfacet
facet normal 0.000002 0.000000 -1.000000
outer loop
vertex -0.718118 -0.558934 0.230000
vertex -0.800321 -0.433112 0.230000
vertex -0.616326 -0.669509 0.230000
endloop
endfacet
facet normal -0.000001 0.000000 -1.000000
outer loop
vertex -0.616326 -0.669509 0.230000
vertex -0.365543 -0.833354 0.230000
vertex -0.497723 -0.761821 0.230000
endloop
endfacet
facet normal -0.000000 0.000000 -1.000000
outer loop
vertex 0.718118 -0.558934 0.230000
vertex 0.497723 0.761821 0.230000
vertex 0.860694 0.295476 0.230000
endloop
endfacet
facet normal 0.000000 0.000000 -1.000000
outer loop
vertex -0.223392 -0.882154 0.230000
vertex 0.497723 0.761821 0.230000
vertex 0.223392 -0.882154 0.230000
endloop
endfacet
facet normal 0.000000 0.000000 -1.000000
outer loop
vertex 0.223392 -0.882154 0.230000
vertex 0.497723 0.761821 0.230000
vertex 0.497723 -0.761821 0.230000
endloop
endfacet
facet normal 0.000000 0.000000 -1.000000
outer loop
vertex 0.497723 -0.761821 0.230000
vertex 0.497723 0.761821 0.230000
vertex 0.718118 -0.558934 0.230000
endloop
endfacet
facet normal 0.000000 0.000000 -1.000000
outer loop
vertex -0.365543 0.833354 0.230000
vertex 0.497723 0.761821 0.230000
vertex -0.223392 -0.882154 0.230000
endloop
endfacet
facet normal 0.000000 0.000000 -1.000000
outer loop
vertex 0.365543 0.833354 0.230000
vertex 0.497723 0.761821 0.230000
vertex -0.365543 0.833354 0.230000
endloop
endfacet
facet normal 0.000000 0.000000 -1.000000
outer loop
vertex 0.497723 0.761821 0.230000
vertex 0.718118 0.558934 0.230000
vertex 0.860694 0.295476 0.230000
endloop
endfacet
facet normal 0.000000 0.000000 -1.000000
outer loop
vertex 0.860694 0.295476 0.230000
vertex 0.718118 0.558934 0.230000
vertex 0.800321 0.433112 0.230000
endloop
endfacet
facet normal -0.000000 0.000000 -1.000000
outer loop
vertex -0.800321 -0.433112 0.230000
vertex -0.223392 -0.882154 0.230000
vertex -0.616326 -0.669509 0.230000
endloop
endfacet
facet normal 0.000000 0.000000 -1.000000
outer loop
vertex -0.616326 -0.669509 0.230000
vertex -0.223392 -0.882154 0.230000
vertex -0.365543 -0.833354 0.230000
endloop
endfacet
facet normal 0.000000 0.000000 -1.000000
outer loop
vertex 0.497723 0.761821 0.230000
vertex 0.616326 0.669509 0.230000
vertex 0.718118 0.558934 0.230000
endloop
endfacet
facet normal 0.000000 0.000000 -1.000000
outer loop
vertex -0.897589 -0.149781 0.230000
vertex -0.910000 0.000000 0.230000
vertex -0.860694 -0.295476 0.230000
endloop
endfacet
facet normal 0.000000 0.000000 -1.000000
outer loop
vertex -0.860694 -0.295476 0.230000
vertex -0.910000 0.000000 0.230000
vertex -0.800321 -0.433112 0.230000
endloop
endfacet
facet normal 0.000000 0.000000 -1.000000
outer loop
vertex -0.223392 -0.882154 0.230000
vertex 0.223392 -0.882154 0.230000
vertex -0.075147 -0.906892 0.230000
endloop
endfacet
facet normal 0.000000 0.000000 -1.000000
outer loop
vertex -0.075147 -0.906892 0.230000
vertex 0.223392 -0.882154 0.230000
vertex 0.075147 -0.906892 0.230000
endloop
endfacet
facet normal 0.000001 0.000000 -1.000000
outer loop
vertex 0.223392 -0.882154 0.230000
vertex 0.497723 -0.761821 0.230000
vertex 0.365543 -0.833354 0.230000
endloop
endfacet
facet normal 0.000000 0.000000 -1.000000
outer loop
vertex -0.800321 0.433112 0.230000
vertex -0.718118 0.558934 0.230000
vertex -0.860694 0.295476 0.230000
endloop
endfacet
facet normal 0.000001 0.000000 -1.000000
outer loop
vertex -0.860694 0.295476 0.230000
vertex -0.616326 0.669509 0.230000
vertex -0.897589 0.149781 0.230000
endloop
endfacet
facet normal 0.000000 0.000000 -1.000000
outer loop
vertex -0.897589 0.149781 0.230000
vertex -0.616326 0.669509 0.230000
vertex -0.910000 0.000000 0.230000
endloop
endfacet
facet normal 0.000000 0.000000 -1.000000
outer loop
vertex -0.718118 0.558934 0.230000
vertex -0.616326 0.669509 0.230000
vertex -0.860694 0.295476 0.230000
endloop
endfacet
facet normal 0.000000 0.000000 -1.000000
outer loop
vertex 0.497723 -0.761821 0.230000
vertex 0.718118 -0.558934 0.230000
vertex 0.616326 -0.669509 0.230000
endloop
endfacet
facet normal -0.000002 0.000000 -1.000000
outer loop
vertex -0.497723 0.761821 0.230000
vertex -0.365543 0.833354 0.230000
vertex -0.616326 0.669509 0.230000
endloop
endfacet
facet normal -0.000000 0.000000 -1.000000
outer loop
vertex -0.800321 -0.433112 0.230000
vertex -0.365543 0.833354 0.230000
vertex -0.223392 -0.882154 0.230000
endloop
endfacet
facet normal 0.000000 0.000000 -1.000000
outer loop
vertex -0.910000 0.000000 0.230000
vertex -0.365543 0.833354 0.230000
vertex -0.800321 -0.433112 0.230000
endloop
endfacet
facet normal 0.000000 0.000000 -1.000000
outer loop
vertex -0.616326 0.669509 0.230000
vertex -0.365543 0.833354 0.230000
vertex -0.910000 0.000000 0.230000
endloop
endfacet
facet normal 0.000002 0.000000 -1.000000
outer loop
vertex 0.800321 -0.433112 0.230000
vertex 0.897589 -0.149781 0.230000
vertex 0.860694 -0.295476 0.230000
endloop
endfacet
facet normal 0.000000 0.000000 -1.000000
outer loop
vertex 0.718118 -0.558934 0.230000
vertex 0.910000 0.000000 0.230000
vertex 0.800321 -0.433112 0.230000
endloop
endfacet
facet normal 0.000000 0.000000 -1.000000
outer loop
vertex 0.800321 -0.433112 0.230000
vertex 0.910000 0.000000 0.230000
vertex 0.897589 -0.149781 0.230000
endloop
endfacet
facet normal 0.000002 0.000000 -1.000000
outer loop
vertex 0.910000 0.000000 0.230000
vertex 0.860694 0.295476 0.230000
vertex 0.897589 0.149781 0.230000
endloop
endfacet
facet normal -0.000006 0.000000 1.000000
outer loop
vertex 0.860694 0.295476 2.480000
vertex 0.718118 -0.558934 2.480000
vertex 0.910000 0.000000 2.480000
endloop
endfacet
facet normal -0.000002 0.000000 1.000000
outer loop
vertex 0.365543 0.833354 2.480000
vertex 0.223392 0.882154 2.480000
vertex 0.075147 0.906892 2.480000
endloop
endfacet
facet normal 0.000000 0.000000 1.000000
outer loop
vertex 0.365543 0.833354 2.480000
vertex 0.075147 0.906892 2.480000
vertex -0.075147 0.906892 2.480000
endloop
endfacet
facet normal 0.000000 0.000000 1.000000
outer loop
vertex 0.365543 0.833354 2.480000
vertex -0.075147 0.906892 2.480000
vertex -0.223392 0.882154 2.480000
endloop
endfacet
facet normal 0.000000 0.000000 1.000000
outer loop
vertex 0.365543 0.833354 2.480000
vertex -0.223392 0.882154 2.480000
vertex -0.365543 0.833354 2.480000
endloop
endfacet
facet normal 0.000000 0.000000 1.000000
outer loop
vertex -0.800321 -0.433112 2.480000
vertex -0.718118 -0.558934 2.480000
vertex -0.616326 -0.669509 2.480000
endloop
endfacet
facet normal -0.000008 0.000000 1.000000
outer loop
vertex -0.365543 -0.833354 2.480000
vertex -0.616326 -0.669509 2.480000
vertex -0.497723 -0.761821 2.480000
endloop
endfacet
facet normal 0.000003 0.000000 1.000000
outer loop
vertex 0.497723 0.761821 2.480000
vertex 0.718118 -0.558934 2.480000
vertex 0.860694 0.295476 2.480000
endloop
endfacet
facet normal 0.000000 0.000000 1.000000
outer loop
vertex 0.497723 0.761821 2.480000
vertex -0.223392 -0.882154 2.480000
vertex 0.223392 -0.882154 2.480000
endloop
endfacet
facet normal 0.000001 0.000000 1.000000
outer loop
vertex 0.497723 0.761821 2.480000
vertex 0.223392 -0.882154 2.480000
vertex 0.497723 -0.761821 2.480000
endloop
endfacet
facet normal 0.000000 0.000000 1.000000
outer loop
vertex 0.497723 0.761821 2.480000
vertex 0.497723 -0.761821 2.480000
vertex 0.718118 -0.558934 2.480000
endloop
endfacet
facet normal -0.000001 0.000000 1.000000
outer loop
vertex 0.497723 0.761821 2.480000
vertex -0.365543 0.833354 2.480000
vertex -0.223392 -0.882154 2.480000
endloop
endfacet
facet normal 0.000000 0.000000 1.000000
outer loop
vertex 0.497723 0.761821 2.480000
vertex 0.365543 0.833354 2.480000
vertex -0.365543 0.833354 2.480000
endloop
endfacet
facet normal -0.000008 0.000000 1.000000
outer loop
vertex 0.718118 0.558934 2.480000
vertex 0.497723 0.761821 2.480000
vertex 0.860694 0.295476 2.480000
endloop
endfacet
facet normal 0.000000 0.000000 1.000000
outer loop
vertex 0.718118 0.558934 2.480000
vertex 0.860694 0.295476 2.480000
vertex 0.800321 0.433112 2.480000
endloop
endfacet
facet normal 0.000002 0.000000 1.000000
outer loop
vertex -0.223392 -0.882154 2.480000
vertex -0.800321 -0.433112 2.480000
vertex -0.616326 -0.669509 2.480000
endloop
endfacet
facet normal 0.000000 0.000000 1.000000
outer loop
vertex -0.223392 -0.882154 2.480000
vertex -0.616326 -0.669509 2.480000
vertex -0.365543 -0.833354 2.480000
endloop
endfacet
facet normal 0.000000 0.000000 1.000000
outer loop
vertex 0.616326 0.669509 2.480000
vertex 0.497723 0.761821 2.480000
vertex 0.718118 0.558934 2.480000
endloop
endfacet
facet normal 0.000000 0.000000 1.000000
outer loop
vertex -0.910000 0.000000 2.480000
vertex -0.897589 -0.149781 2.480000
vertex -0.860694 -0.295476 2.480000
endloop
endfacet
facet normal -0.000005 0.000000 1.000000
outer loop
vertex -0.910000 0.000000 2.480000
vertex -0.860694 -0.295476 2.480000
vertex -0.800321 -0.433112 2.480000
endloop
endfacet
facet normal 0.000000 0.000000 1.000000
outer loop
vertex 0.223392 -0.882154 2.480000
vertex -0.223392 -0.882154 2.480000
vertex -0.075147 -0.906892 2.480000
endloop
endfacet
facet normal 0.000000 0.000000 1.000000
outer loop
vertex 0.223392 -0.882154 2.480000
vertex -0.075147 -0.906892 2.480000
vertex 0.075147 -0.906892 2.480000
endloop
endfacet
facet normal 0.000000 0.000000 1.000000
outer loop
vertex 0.497723 -0.761821 2.480000
vertex 0.223392 -0.882154 2.480000
vertex 0.365543 -0.833354 2.480000
endloop
endfacet
facet normal 0.000000 0.000000 1.000000
outer loop
vertex -0.718118 0.558934 2.480000
vertex -0.800321 0.433112 2.480000
vertex -0.860694 0.295476 2.480000
endloop
endfacet
facet normal 0.000003 0.000000 1.000000
outer loop
vertex -0.616326 0.669509 2.480000
vertex -0.860694 0.295476 2.480000
vertex -0.897589 0.149781 2.480000
endloop
endfacet
facet normal 0.000002 0.000000 1.000000
outer loop
vertex -0.616326 0.669509 2.480000
vertex -0.897589 0.149781 2.480000
vertex -0.910000 0.000000 2.480000
endloop
endfacet
facet normal -0.000011 0.000000 1.000000
outer loop
vertex -0.616326 0.669509 2.480000
vertex -0.718118 0.558934 2.480000
vertex -0.860694 0.295476 2.480000
endloop
endfacet
facet normal 0.000008 0.000000 1.000000
outer loop
vertex 0.718118 -0.558934 2.480000
vertex 0.497723 -0.761821 2.480000
vertex 0.616326 -0.669509 2.480000
endloop
endfacet
facet normal -0.000008 0.000000 1.000000
outer loop
vertex -0.365543 0.833354 2.480000
vertex -0.497723 0.761821 2.480000
vertex -0.616326 0.669509 2.480000
endloop
endfacet
facet normal 0.000000 0.000000 1.000000
outer loop
vertex -0.365543 0.833354 2.480000
vertex -0.800321 -0.433112 2.480000
vertex -0.223392 -0.882154 2.480000
endloop
endfacet
facet normal -0.000001 0.000000 1.000000
outer loop
vertex -0.365543 0.833354 2.480000
vertex -0.910000 0.000000 2.480000
vertex -0.800321 -0.433112 2.480000
endloop
endfacet
facet normal 0.000000 0.000000 1.000000
outer loop
vertex -0.365543 0.833354 2.480000
vertex -0.616326 0.669509 2.480000
vertex -0.910000 0.000000 2.480000
endloop
endfacet
facet normal -0.000032 0.000000 1.000000
outer loop
vertex 0.897589 -0.149781 2.480000
vertex 0.800321 -0.433112 2.480000
vertex 0.860694 -0.295476 2.480000
endloop
endfacet
facet normal 0.000003 0.000000 1.000000
outer loop
vertex 0.910000 0.000000 2.480000
vertex 0.718118 -0.558934 2.480000
vertex 0.800321 -0.433112 2.480000
endloop
endfacet
facet normal 0.000022 0.000000 1.000000
outer loop
vertex 0.910000 0.000000 2.480000
vertex 0.800321 -0.433112 2.480000
vertex 0.897589 -0.149781 2.480000
endloop
endfacet
facet normal 0.000000 0.000000 1.000000
outer loop
vertex 0.860694 0.295476 2.480000
vertex 0.910000 0.000000 2.480000
vertex 0.897589 0.149781 2.480000
endloop
endfacet
endsolid Exported from Blender-2.82 (sub 7)
